<svg width="160" height="46" viewBox="0 0 160 46" fill="none" xmlns="http://www.w3.org/2000/svg">
<path d="M5.94 46H0.24L24.72 0.819999H25.08L38.46 46H31.8L21.96 10.12L26.46 7.42L5.94 46ZM13.38 29.56H29.52L30.84 34.6H11.1L13.38 29.56ZM44.4703 43.18C44.4703 42.18 44.8503 41.34 45.6103 40.66C46.4103 39.98 47.2303 39.64 48.0703 39.64C48.7503 39.64 49.3703 39.92 49.9303 40.48C50.4903 41.04 50.7703 41.72 50.7703 42.52C50.7703 43.2 50.5903 43.8 50.2303 44.32C49.8703 44.84 49.4103 45.26 48.8503 45.58C48.3303 45.86 47.7903 46 47.2303 46C46.5103 46 45.8703 45.74 45.3103 45.22C44.7503 44.7 44.4703 44.02 44.4703 43.18ZM79.9209 2.62H85.8609L80.5809 46H74.5809L79.9209 2.62ZM108.865 43.18C108.865 42.18 109.245 41.34 110.005 40.66C110.805 39.98 111.625 39.64 112.465 39.64C113.145 39.64 113.765 39.92 114.325 40.48C114.885 41.04 115.165 41.72 115.165 42.52C115.165 43.2 114.985 43.8 114.625 44.32C114.265 44.84 113.805 45.26 113.245 45.58C112.725 45.86 112.185 46 111.625 46C110.905 46 110.265 45.74 109.705 45.22C109.145 44.7 108.865 44.02 108.865 43.18ZM120.987 46L126.327 2.62H138.987C143.027 2.62 146.387 3.24 149.067 4.48C151.747 5.68 153.847 7.3 155.367 9.34C156.887 11.34 157.927 13.62 158.487 16.18C159.047 18.7 159.227 21.3 159.027 23.98C158.787 27.42 158.007 30.52 156.687 33.28C155.367 36 153.627 38.3 151.467 40.18C149.307 42.06 146.867 43.5 144.147 44.5C141.427 45.5 138.547 46 135.507 46H120.987ZM127.467 40.42H135.387C137.787 40.42 140.027 40.06 142.107 39.34C144.227 38.62 146.067 37.56 147.627 36.16C149.227 34.76 150.507 33.02 151.467 30.94C152.427 28.82 152.987 26.38 153.147 23.62C153.347 20.94 153.107 18.64 152.427 16.72C151.747 14.76 150.727 13.16 149.367 11.92C148.007 10.64 146.427 9.7 144.627 9.1C142.867 8.5 140.967 8.2 138.927 8.2H131.367L127.467 40.42Z" fill="#FC3B3E"/>
</svg>
